HIERARCHY
ROOT Hips
{
	OFFSET 0.000000 0.000000 0.000000
	CHANNELS 6 Xposition Yposition Zposition Zrotation Yrotation Xrotation 
	JOINT LHipJoint
	{
		OFFSET 0.000000 0.000000 0.000000
		CHANNELS 3 Zrotation Yrotation Xrotation
		JOINT LeftUpLeg
		{
			OFFSET 1.363060 -1.794630 0.839290
			CHANNELS 3 Zrotation Yrotation Xrotation
			JOINT LeftLeg
			{
				OFFSET 2.448110 -6.726130 0.000000
				CHANNELS 3 Zrotation Yrotation Xrotation
				JOINT LeftFoot
				{
					OFFSET 2.562200 -7.039590 0.000000
					CHANNELS 3 Zrotation Yrotation Xrotation
					JOINT LeftToeBase
					{
						OFFSET 0.157640 -0.433110 2.322550
						CHANNELS 3 Zrotation Yrotation Xrotation
						End Site
						{
							OFFSET 0.000000 0.000000 0.000000
						}
					}
				}
			}
		}
	}
	JOINT RHipJoint
	{
		OFFSET 0.000000 0.000000 0.000000
		CHANNELS 3 Zrotation Yrotation Xrotation
		JOINT RightUpLeg
		{
			OFFSET -1.305520 -1.794630 0.839290
			CHANNELS 3 Zrotation Yrotation Xrotation
			JOINT RightLeg
			{
				OFFSET -2.542530 -6.985550 0.000000
				CHANNELS 3 Zrotation Yrotation Xrotation
				JOINT RightFoot
				{
					OFFSET -2.568260 -7.056230 0.000000
					CHANNELS 3 Zrotation Yrotation Xrotation
					JOINT RightToeBase
					{
						OFFSET -0.164730 -0.452590 2.363150
						CHANNELS 3 Zrotation Yrotation Xrotation
						End Site
						{
							OFFSET 0.000000 0.000000 0.000000
						}
					}
				}
			}
		}
	}
	JOINT LowerBack
	{
		OFFSET 0.000000 0.000000 0.000000
		CHANNELS 3 Zrotation Yrotation Xrotation
		JOINT Spine
		{
			OFFSET 0.028270 2.035590 -0.193380
			CHANNELS 3 Zrotation Yrotation Xrotation
			JOINT Spine1
			{
				OFFSET 0.056720 2.048850 -0.042750
				CHANNELS 3 Zrotation Yrotation Xrotation
				JOINT Neck
				{
					OFFSET 0.000000 0.000000 0.000000
					CHANNELS 3 Zrotation Yrotation Xrotation
					JOINT Neck1
					{
						OFFSET -0.054170 1.746240 0.172020
						CHANNELS 3 Zrotation Yrotation Xrotation
						JOINT Head
						{
							OFFSET 0.104070 1.761360 -0.123970
							CHANNELS 3 Zrotation Yrotation Xrotation
							End Site
							{
								OFFSET 0.000000 0.000000 0.000000
							}
						}
					}
				}
				JOINT LeftShoulder
				{
					OFFSET 0.000000 0.000000 0.000000
					CHANNELS 3 Zrotation Yrotation Xrotation
					JOINT LeftArm
					{
						OFFSET 3.362410 1.200890 -0.311210
						CHANNELS 3 Zrotation Yrotation Xrotation
						JOINT LeftForeArm
						{
							OFFSET 4.983000 -0.000000 -0.000000
							CHANNELS 3 Zrotation Yrotation Xrotation
							JOINT LeftHand
							{
								OFFSET 3.483560 -0.000000 -0.000000
								CHANNELS 3 Zrotation Yrotation Xrotation
								JOINT LeftFingerBase
								{
									OFFSET 0.000000 0.000000 0.000000
									CHANNELS 3 Zrotation Yrotation Xrotation
									JOINT LeftHandIndex1
									{
										OFFSET 0.715260 -0.000000 -0.000000
										CHANNELS 3 Zrotation Yrotation Xrotation
										End Site
										{
											OFFSET 0.000000 0.000000 0.000000
										}
									}
								}
								JOINT LThumb
								{
									OFFSET 0.000000 0.000000 0.000000
									CHANNELS 3 Zrotation Yrotation Xrotation
									End Site
									{
										OFFSET 0.000000 0.000000 0.000000
									}
								}
							}
						}
					}
				}
				JOINT RightShoulder
				{
					OFFSET 0.000000 0.000000 0.000000
					CHANNELS 3 Zrotation Yrotation Xrotation
					JOINT RightArm
					{
						OFFSET -3.136600 1.374050 -0.404650
						CHANNELS 3 Zrotation Yrotation Xrotation
						JOINT RightForeArm
						{
							OFFSET -5.241900 -0.000000 -0.000000
							CHANNELS 3 Zrotation Yrotation Xrotation
							JOINT RightHand
							{
								OFFSET -3.444170 -0.000000 -0.000000
								CHANNELS 3 Zrotation Yrotation Xrotation
								JOINT RightFingerBase
								{
									OFFSET 0.000000 0.000000 0.000000
									CHANNELS 3 Zrotation Yrotation Xrotation
									JOINT RightHandIndex1
									{
										OFFSET -0.622530 -0.000000 -0.000000
										CHANNELS 3 Zrotation Yrotation Xrotation
										End Site
										{
											OFFSET 0.000000 0.000000 0.000000
										}
									}
								}
								JOINT RThumb
								{
									OFFSET 0.000000 0.000000 0.000000
									CHANNELS 3 Zrotation Yrotation Xrotation
									End Site
									{
										OFFSET 0.000000 0.000000 0.000000
									}
								}
							}
						}
					}
				}
			}
		}
	}
}
MOTION
Frames: 4
Frame Time: 0.033333
-0.404628 15.521107 0.178344 -2.087214 -0.188065 26.007073 -7.056793 51.650050 -7.203540 -41.962643 -41.255988 -48.207799 10.648353 0.658687 52.020923 -2.193075 -3.260269 -9.520549 0.000000 0.000000 0.000000 11.198658 -57.960407 11.981822 22.426568 42.558423 -41.956291 -9.880107 -1.849664 77.009798 54.290807 -14.577267 -51.004233 0.000000 0.000000 0.000000 -1.023072 0.391410 53.858479 9.207426 -0.071395 -5.764550 -7.340421 5.311614 6.930044 0.641727 2.146337 -1.133939 -2.670982 2.026453 -21.570954 0.000000 0.000000 0.000000 10.215542 14.650441 9.653629 -75.823036 7.667487 -9.688625 -47.153305 -37.906956 -4.406162 -0.533437 -32.735000 -2.231732 0.038838 -32.844394 -0.000000 0.000000 0.000000 0.000000 0.000000 0.000000 0.000000 -19.549180 -17.263199 -9.949421 80.809517 -3.798918 43.351088 -159.254628 82.341524 178.882140 -47.760451 18.854746 -1.298504 -48.968220 16.395965 0.000000 0.000000 0.000000 0.000000 0.000000 0.000000 0.000000 
-0.384217 15.462455 0.143901 -6.816568 -3.407572 29.405517 -1.541754 60.999789 -4.018881 -43.802072 -46.938537 -51.582873 5.322321 3.012824 54.275155 -5.707290 4.658487 -2.598070 0.000000 0.000000 0.000000 2.220292 -69.114385 17.634405 44.996379 46.269029 -23.913916 -15.411444 5.448877 72.817666 49.227413 -14.815521 -42.089663 0.000000 0.000000 0.000000 -2.130710 1.650296 54.038464 4.837213 -0.731074 -4.334982 -4.299448 3.800561 5.703743 0.336180 1.680579 -4.448727 0.083363 2.702508 -13.517817 0.000000 0.000000 0.000000 9.170695 21.821813 7.131693 -71.499184 20.764459 -14.457831 -48.769423 -40.137615 -0.898107 -9.389414 -29.136118 -0.346184 -9.957350 -28.953301 0.000000 0.000000 0.000000 0.000000 0.000000 0.000000 0.000000 -14.982743 -15.825294 3.151546 78.134436 -6.125559 32.220903 -173.898292 62.751236 172.304636 -28.909936 37.039316 -4.798598 -33.254859 34.631199 0.000000 0.000000 0.000000 0.000000 0.000000 0.000000 0.000000 
-0.147036 15.227484 0.492110 -4.831086 -2.221379 29.501106 2.136328 68.480896 3.047841 -57.952344 -51.312247 -39.010150 7.430434 -0.023588 52.391868 -3.332966 -0.882035 -6.077536 0.000000 0.000000 0.000000 -4.163407 -71.554027 18.975630 44.762719 43.548154 -21.760918 -12.040251 3.571440 72.944032 46.315119 -10.150479 -43.867410 0.000000 0.000000 0.000000 0.739550 -0.172690 51.152149 3.128673 -2.153863 -3.407233 -2.343635 2.813789 8.829189 -2.480185 1.666921 -5.062462 -1.221136 2.349801 -14.757919 0.000000 0.000000 0.000000 15.490397 18.546395 10.404630 -78.805549 16.566044 -15.942198 -54.851960 -36.815662 -0.511580 10.475228 -27.944683 -0.325463 10.934929 -27.783047 0.000000 0.000000 0.000000 0.000000 0.000000 0.000000 0.000000 -17.325075 -20.016459 2.831297 72.438191 -5.266925 27.997124 175.244900 63.882875 167.614498 -34.875904 43.133363 -8.248153 -42.832484 38.436786 -0.000000 0.000000 0.000000 0.000000 0.000000 0.000000 0.000000 
-0.132965 15.217498 0.522521 -5.542976 -3.128319 28.923350 3.183899 68.955323 1.418652 -61.400976 -48.669497 -34.629329 10.361521 -1.499624 51.396618 -2.456001 -2.988186 -8.181057 0.000000 0.000000 0.000000 -5.657531 -72.100952 19.816924 44.670649 43.650800 -20.431911 -10.837074 2.828987 73.108180 45.377531 -10.067017 -44.299593 0.000000 0.000000 0.000000 0.647723 0.611332 48.918359 3.276204 -0.707827 -4.467619 -0.420218 4.309439 10.415743 -2.348677 0.007696 -7.885809 -2.978544 1.395507 -12.731930 0.000000 0.000000 0.000000 18.363507 15.248878 14.671208 -77.156024 15.120000 -12.718480 -67.969600 -39.284661 1.221897 34.237302 -23.676795 0.327326 35.016470 -22.413986 -0.000000 0.000000 0.000000 0.000000 0.000000 0.000000 0.000000 -19.177407 -20.392365 -1.260236 65.402769 -3.936630 41.693643 177.037813 57.170424 168.714986 -35.265227 45.150584 -7.887618 -43.549350 40.021548 0.000000 0.000000 0.000000 0.000000 0.000000 0.000000 0.000000 
